<?xml version="1.0" encoding="UTF-8"?>
<svg id="_Слой_1" data-name="Слой 1" xmlns="http://www.w3.org/2000/svg" viewBox="0 0 1024 1024">
  <defs>
    <style>
      .cls-1 {
        fill: #fefefe;
      }

      .cls-1, .cls-2, .cls-3, .cls-4, .cls-5, .cls-6 {
        stroke-width: 0px;
      }

      .cls-2 {
        fill: #8cd591;
      }

      .cls-3 {
        fill: #e51a32;
      }

      .cls-7 {
        stroke: #fff;
        stroke-miterlimit: 10;
      }

      .cls-5 {
        fill: #e50707;
      }

      .cls-6 {
        fill: #999695;
      }
    </style>
  </defs>
  <path class="cls-6" d="m1023.38,0h.62v1024h-.7l.08-1024Z"/>
  <path class="cls-6" d="m0,0h.78l.04,1024h-.82V0Z"/>
  <path class="cls-4" d="m736.04,307.64c-24.43-19.44-25.97-25.99-31.34-35.72-2.01-5.48-5.37-13.43-10.32-18.36-6.63-5.53-15.64-9.7-23.9-11.99-4.07-1.13-12.45-2.79-15.97-5.02l.9-1.5,1.38-.38c14.54,2.85,34.07,8.89,42.89,21.87,3.43,5.05,5.5,11.06,8.2,16.52,5.63,11.38,31.26,31.99,40.72,40.34"/>
  <path class="cls-5" d="m686.47,237.08c14.82,6.74,25.13,16.09,31.46,18.77,17.16,7.27,41.96,7.9,60.71,9.48,6.23.52,12.71.8,18.82,2.14-14.36,2.07-28.08,3.47-42.54,4.49-.74.64-1.01.8-1.89,1.13l.19.2c-8.11,2.32-22.95,0-31.08-2.13,3.07,4.12,8.38,10.29,8.36,15.66,8.65,11.75,24.71,26.81,36.16,35.62-12.78-5.54-23.86-11.93-35.16-20.11-9.46-8.35-18.01-17.88-23.64-29.26-2.7-5.46-4.77-11.47-8.2-16.52-8.81-12.98-27.52-18.05-42.06-20.9l-.97-.58c1.1-2.93,1.85-6.03,2.69-9.04"/>
  <path class="cls-4" d="m753.22,273.29c-8.11,2.32-21.49.89-29.62-1.25,3.07,4.12,8.19,12.97,10.2,18.99-6.37-7.61-14.96-20.47-21.12-28.29,14.37,7.63,33.77,7.46,49.54,8.67"/>
  <path class="cls-4" d="m511,521.23c11.94,2.65,23.74,6.14,35.46,9.62,49.36,14.64,103.54,37.03,132.36,82.28,9.16,14.38,17.53,33.49,20.09,50.55.91,6.1.89,12.23.85,18.38-1.43-3.12-3-6.06-4.75-9.02-1.4-13.89-12.23-36.13-20.02-47.76-2.32-3.43-4.79-6.75-7.42-9.94-2.63-3.2-5.41-6.26-8.33-9.19-30.17-30.37-70.9-50.79-112.14-61.23-11.65-2.95-23.84-5.48-35.89-5.49,0-6.06.07-12.12-.21-18.18Z"/>
  <path class="cls-4" d="m633.03,333.09l.57-.54,3.04,1.29c9.51,5.51,19.37,10.29,28.67,16.2,24.13,15.31,47.63,36.83,63.97,60.33,6.29,9.04,11.42,18.67,16.78,28.26,3.35,7.84,6.69,15.64,8.94,23.89,5.63,20.64,5.4,45.28.57,66.12-1.17-2.16.24-16.7-.18-20.57-2.2-20.3-10.55-39.37-19.67-57.38-2.42-4.78-4.83-10.21-8.09-14.48-.45-1.31-1.08-2.57-1.65-3.83-2.59-6.05-7.29-12.03-11.24-17.28-22.25-29.63-49.81-47.47-81.57-65.33-.05-4.35-.06-8.7-.04-13.05"/>
  <path class="cls-4" d="m419.2,869.49c-.27-1.08-.52-2.16-.75-3.24s-.44-2.17-.63-3.27c-.19-1.09-.36-2.19-.51-3.29-.15-1.1-.28-2.2-.39-3.3-.11-1.1-.2-2.21-.27-3.32-.07-1.11-.12-2.21-.15-3.32-.03-1.11-.04-2.22-.02-3.33.01-1.11.04-2.22.1-3.33.05-1.11.13-2.21.22-3.32.09-1.11.21-2.21.34-3.31.13-1.1.29-2.2.46-3.29.17-1.1.37-2.19.58-3.28.21-1.09.45-2.17.7-3.25.25-1.08.53-2.15.82-3.22.29-1.07.61-2.13.94-3.19.33-1.06.68-2.11,1.06-3.15,14.05-38.57,52.01-57.14,88.3-70.1,18.85-6.73,38.04-12.29,55.22-22.92,9.48-5.86,17.17-13.67,25.37-21.08,12.64-11.42,27.2-22.8,42.72-29.88,10.6-4.83,22.89-7.96,34.21-3.61,12.96,4.99,20.31,16.71,25.71,28.83-2.09,5.12-4.67,9.95-7.35,14.77-.12-.29-.25-.57-.38-.86-.96-2.27-1.41-4.72-2.28-7.02-3.01-7.97-8.07-16.51-16.27-19.96-8.91-3.75-18.58-1.16-27.03,2.48-14.51,6.26-27.61,15.25-39.53,25.55-10.94,9.46-21.08,19.39-33.38,27.2-39.01,24.74-84.25,29.74-118.28,63.68-8.09,8.07-15.23,17.72-19.43,28.42-2.04,5.18-4.46,12.92-3.8,18.52-2.74,5.88-4.5,12.19-6.31,18.41Z"/>
  <path class="cls-2" d="m425.51,851.09c-.66-5.6,1.77-13.34,3.8-18.52,4.2-10.7,11.34-20.35,19.43-28.42,34.03-33.93,79.28-38.93,118.28-63.68,12.3-7.8,22.44-17.74,33.38-27.2,11.92-10.3,25.02-19.29,39.53-25.55,8.45-3.65,18.12-6.23,27.03-2.48,8.2,3.45,13.26,11.99,16.27,19.96.87,2.3,1.32,4.76,2.28,7.02.12.29.25.57.38.86-5.17,7.83-11.31,15.46-18.34,21.7-25.1,22.3-62.59,34.65-95.05,41.28-50.57,10.33-108.52,15.46-139.8,62.74-2.62,3.96-4.92,8.11-7.18,12.28Z"/>
  <path class="cls-2" d="m686.4,201.2c-.85,3.01-1.59,6.11-2.69,9.04-.18.24-.36.47-.53.7-3.61,4.87-5.59,10.8-9.45,15.67-10.04,12.67-34.4,29.77-49.2,35.24-4.34,1.61-9.35,2.2-13.93,2.97-24.96,4.16-56.01,1.77-81.59,1.05-13.13-.37-26.31.26-39.44-.04-11.44-.27-22.56-1.9-34.03-.53-8.98,1.07-18.19,3.91-25.93,8.66-5.53,3.39-17.03,16.2-21.57,16.43l-.32.11c-7.2-1.84-14.43-3.65-21.39-6.27-17.78-6.69-32.43-16.03-44.77-30.6-2.76-3.26-5.76-6.65-7.53-10.56-.97-1.45-1.78-3.04-2.54-4.61-.49-1-.96-2.01-1.4-3.04-.44-1.02-.86-2.06-1.25-3.1-.39-1.04-.76-2.1-1.09-3.16-.34-1.06-.65-2.13-.93-3.21-.28-1.08-.54-2.16-.77-3.25-.23-1.09-.43-2.19-.61-3.29-.17-1.1-.32-2.21-.44-3.32-.12-1.11-.21-2.22-.27-3.33-.06-1.11-.1-2.23-.11-3.34,0-1.11.01-2.23.06-3.34.05-1.11.13-2.23.23-3.34.1-1.11.24-2.22.4-3.32.16-1.1.35-2.2.56-3.3.22-1.09.46-2.18.73-3.26.27-1.08.57-2.16.89-3.22.32-1.07.67-2.12,1.05-3.17,3.3-6.75,8.24-12.97,13.13-18.64,25.68-29.81,59.16-50.34,96.13-63.08,5.33-1.84,13.41-5.52,18.89-5.91,4.48-3.4,20.51-5.42,26.25-5.75,2.06-.12,3.69-.24,5.32,1.22,40.95-11.87,107.09.09,144.41,20.58,23.64,12.98,43.29,31.58,50.82,58.18.2.7.36,1.39.52,2.1l.28-2.6.42-.02c3.98,7.97,3.19,16.68,2.56,25.35"/>
  <path class="cls-4" d="m328.54,186.46c3.3-6.75,8.24-12.97,13.13-18.64,25.68-29.81,59.16-50.34,96.13-63.08,5.33-1.84,13.41-5.52,18.89-5.91-10.75,9.58-18.54,20.23-22.59,34.18-3.62,17.95-3.38,35.53,7.02,51.36,10.92,16.64,30.62,24.96,49.48,28.79,17.38,3.52,35.93,4.67,53.17-.09,6.65-1.84,13.07-5.03,20.02-5.4,12.11-.64,24.47-.13,36.6-.11l66.24-.05c-1.38,3.02-2.33,5.78-5.67,7.06-3.59,1.38-9.16.64-13,.63-17.88-.44-35.85-.11-53.74-.12-10.72,0-22.07-.74-32.74.18-6.41.55-13.02,4.55-19.47,5.97-22.79,4.99-51.11,3.52-72.77-5.38-17.72-7.28-29.88-18.34-37.29-36.15-6.54-15.71-6.01-32.75.44-48.39-19.48,4.05-49.85,23.86-64.72,37.32-2.38,2.16-4.7,4.39-6.95,6.7-2.25,2.3-4.42,4.67-6.52,7.11-2.1,2.44-4.13,4.93-6.08,7.5-1.95,2.56-3.82,5.18-5.61,7.85-6.83,10.39-11.63,21.65-10,34.28.42,3.27,1.94,7.84,1.52,11.02-.97-1.45-1.78-3.04-2.54-4.61-.49-1-.96-2.01-1.4-3.04-.44-1.02-.86-2.06-1.25-3.1-.39-1.04-.76-2.1-1.09-3.16-.34-1.06-.65-2.13-.93-3.21-.28-1.08-.54-2.16-.77-3.25-.23-1.09-.43-2.19-.61-3.29-.17-1.1-.32-2.21-.44-3.32-.12-1.11-.21-2.22-.27-3.33-.06-1.11-.1-2.23-.11-3.34,0-1.11.01-2.23.06-3.34.05-1.11.13-2.23.23-3.34.1-1.11.24-2.22.4-3.32.16-1.1.35-2.2.56-3.3.22-1.09.46-2.18.73-3.26.27-1.08.57-2.16.89-3.22.32-1.07.67-2.12,1.05-3.17Z"/>
  <path class="cls-2" d="m488.25,94.29c40.95-11.87,107.09.09,144.41,20.58,23.64,12.98,43.29,31.58,50.82,58.18.2.7.36,1.39.52,2.1.67,4.72,2.49,11.98.62,16.46-1.14.63-1.5.43-2.77.37l-88.32.08c-6.67,0-13.36.08-20.03-.05-5-.09-10.11-.52-15.09-.19-4.14.27-8.59,2.88-12.48,4.32-7.58,2.8-15.13,4.26-23.23,4.44-22.72.5-49.01-4.76-65.84-21.03-3.53-3.55-6.27-7.31-8.12-12-4.79-12.13-2.81-27.09,2.44-38.75.45-.98.93-1.96,1.43-2.92.5-.96,1.02-1.91,1.57-2.84s1.11-1.86,1.71-2.76c.59-.91,1.2-1.8,1.84-2.68s1.29-1.74,1.97-2.58c.68-.85,1.37-1.67,2.09-2.49s1.45-1.6,2.21-2.38c.76-.78,1.53-1.53,2.32-2.27.79-.74,1.6-1.46,2.43-2.16.83-.7,1.67-1.38,2.53-2.03.86-.66,1.74-1.29,2.63-1.91.89-.61,1.8-1.21,2.72-1.78.92-.57,1.85-1.12,2.8-1.64.95-.53,1.91-1.03,2.88-1.51.97-.48,1.95-.93,2.95-1.36.99-.43,2-.84,3.01-1.22Z"/>
  <path class="cls-1" d="m595.92,152.14c1.53,2.56,1.36,8.18.61,11-1.87,7.02-7.79,13.24-14.04,16.72-7,3.9-16.2,4.95-23.9,2.74-.41-.12-.83-.25-1.23-.39-.41-.14-.81-.29-1.21-.45-.4-.16-.8-.33-1.19-.51-.39-.18-.78-.37-1.16-.57s-.76-.41-1.13-.63c-.37-.22-.74-.45-1.1-.68-.36-.24-.71-.48-1.06-.74-.35-.26-.69-.52-1.02-.79-.33-.27-.66-.55-.98-.84s-.63-.59-.94-.89c-.31-.3-.6-.62-.89-.93-.29-.32-.57-.65-.85-.98-.27-.33-.54-.67-.8-1.02-.26-.35-.5-.7-.74-1.06-.24-.36-.47-.72-.69-1.1-.22-.37-.43-.75-.63-1.13-1.73-3.21-4.74-9.76-3.47-13.41.1-.29.32-.64.47-.92.64,2.16,1.49,4.24,2.56,6.22,3.64,6.68,9.92,11.43,17.2,13.49,7.49,2.11,15.63.72,22.32-3.13,7.92-4.55,11.56-11.54,13.88-20.01Z"/>
  <path class="cls-4" d="m540.01,164.21c-.46-2.69-.9-5.32-.8-8.06.29-7.92,3.56-15.64,9.5-21.04,5.78-5.26,13.99-8.06,21.82-7.65,7.75.41,15.62,3.97,20.81,9.7,5.76,6.35,8.12,15.1,7.52,23.48-2.44,8.82-6.27,16.1-14.6,20.83-7.04,4.01-15.59,5.46-23.47,3.26-7.65-2.14-14.26-7.08-18.08-14.04-1.13-2.07-2.02-4.23-2.69-6.48Z"/>
  <path class="cls-1" d="m554.64,150.13c.21-4.04,1.31-7.65,4.37-10.47.32-.29.65-.57,1-.83s.7-.5,1.07-.72c.37-.22.75-.42,1.14-.61.39-.18.79-.35,1.2-.49.41-.14.82-.27,1.24-.37.42-.1.84-.18,1.27-.24.43-.06.86-.1,1.29-.11.43-.02.86,0,1.29.02.43.03.85.08,1.27.16.42.08.84.17,1.25.29.41.12.82.26,1.21.42.4.16.79.34,1.16.54.38.2.74.42,1.1.66.35.24.7.5,1.03.77s.64.57.94.87c.3.31.58.63.84.97,2.41,3.02,3.27,6.82,3.1,10.62-3.72-.7-7.41-1.37-11.21-1.49-3.15-.11-12.25,1.18-14.58,0Z"/>
  <path class="cls-4" d="m488.63,94.29c41.31-11.87,108.06.09,145.71,20.58,23.86,12.98,43.68,31.58,51.28,58.18.2.7.37,1.39.53,2.1.67,4.72,2.51,11.98.63,16.46-1.15.63-1.52.43-2.79.37-2.11-.44-4.37-.3-6.52-.3-4.49-19.52-13.64-33.98-29.27-46.58-27.07-21.81-59.86-31.09-94.02-34.57-12.92-1.32-25.82-1.95-38.77-.6-17.29,1.8-37.77,7.33-49.14,21.36-12.36,15.26-11.3,30.13-9.3,48.25-3.56-3.55-6.33-7.31-8.2-12-4.84-12.13-2.84-27.09,2.46-38.75.46-.98.94-1.96,1.44-2.92.51-.96,1.03-1.91,1.58-2.84s1.12-1.86,1.72-2.76c.6-.91,1.21-1.8,1.85-2.68s1.3-1.74,1.98-2.58c.68-.85,1.39-1.67,2.11-2.49s1.47-1.6,2.23-2.38c.76-.78,1.54-1.53,2.34-2.27.8-.74,1.62-1.46,2.45-2.16.83-.7,1.69-1.38,2.55-2.03.87-.66,1.75-1.29,2.65-1.91.9-.61,1.81-1.21,2.74-1.78.93-.57,1.87-1.12,2.82-1.64.96-.53,1.92-1.03,2.9-1.51.98-.48,1.97-.93,2.97-1.36,1-.43,2.01-.84,3.04-1.22Z"/>
  <path class="cls-1" d="m614.37,315.78c1.31.27,3.5.46,4.24,1.71.32.54.49,1.11.69,1.69-1,4.56-.37,10.57-.37,15.28.07,10.35.01,20.69-.16,31.04l-6.73.09c-.05-13.68-.55-27.4-.47-41.06.02-3.73,0-6,2.79-8.76Z"/>
  <path class="cls-4" d="m430.86,493.71c16.15,6.56,32.16,13.26,48.89,18.21l.14,4.53-.08,6.15c-16.42-5.89-32.38-13.99-49.13-18.79l-.19-2.34c.4-2.42.21-5.28.37-7.76Z"/>
  <path class="cls-4" d="m553.16,310.45c16.19,1.14,32.79,5.41,48.06,10.83l-.02,15.89c-15.65-6.11-31.43-10.12-48.02-12.7l-.02-14.02Z"/>
  <path class="cls-4" d="m311.87,400.22c1.4,1.97,2.82,3.92,4.27,5.85,1.45,1.93,2.92,3.84,4.42,5.73,1.5,1.89,3.02,3.77,4.57,5.62,1.55,1.85,3.12,3.68,4.72,5.49,1.6,1.81,3.22,3.6,4.86,5.37,1.64,1.77,3.31,3.51,5,5.24,1.69,1.72,3.4,3.43,5.14,5.11,1.73,1.68,3.49,3.34,5.27,4.97,1.78,1.63,3.58,3.24,5.4,4.83,1.82,1.59,3.66,3.15,5.52,4.68,1.86,1.54,3.74,3.05,5.65,4.54,1.9,1.49,3.82,2.95,5.76,4.39,1.94,1.44,3.9,2.85,5.88,4.24,1.98,1.39,3.97,2.75,5.98,4.08,2.01,1.33,4.04,2.64,6.09,3.92,2.05,1.28,4.11,2.53,6.19,3.76,1.38.89,2.11,1.07,2.6,2.77.62,2.17-.01,5.16.1,7.44l-.14,1.79c-17.73-13.71-36.05-27.23-52.34-42.68-10.51-9.97-19.48-20.72-29.08-31.48-.77.85-1.53,1.71-2.29,2.58-.75.87-1.49,1.75-2.22,2.63-.73.89-1.45,1.78-2.16,2.69-.71.9-1.4,1.82-2.09,2.74-.68.92-1.36,1.85-2.02,2.79-.66.94-1.31,1.88-1.95,2.84-.64.95-1.27,1.92-1.88,2.89-.62.97-1.22,1.95-1.81,2.93-.59.98-1.17,1.98-1.74,2.97-.57,1-1.12,2.01-1.66,3.02-.54,1.01-1.07,2.03-1.59,3.06s-1.02,2.06-1.51,3.1c-.49,1.04-.97,2.08-1.44,3.13-.47,1.05-.92,2.1-1.36,3.17-.44,1.06-.87,2.13-1.28,3.2-.41,1.07-.81,2.15-1.2,3.23-.39,1.08-.76,2.17-1.12,3.26-.36,1.09-.71,2.19-1.04,3.28-.33,1.1-.65,2.2-.96,3.31-.31,1.11-.6,2.22-.88,3.33-.28,1.11-.54,2.23-.79,3.35-.25,1.12-.49,2.24-.71,3.37-.22,1.13-.43,2.26-.63,3.39-.19,1.13-.38,2.26-.54,3.4-.17,1.14-.32,2.27-.46,3.41-.14,1.14-.26,2.28-.38,3.42-.11,1.14-.21,2.29-.29,3.43-.08,1.15-.15,2.29-.21,3.44-.05,1.15-.09,2.29-.12,3.44-.03,1.15-.04,2.3-.04,3.45,0,1.15.02,2.3.05,3.44.03,1.15.08,2.3.13,3.44.37,8.16,1.34,16.37,3.38,24.28.79,3.06,7.45,21.02,7.46,21.85,0,.45-.24.88-.36,1.31-13.87-21.44-22.28-46.18-21.86-71.89.58-35.64,16.25-67.84,41.68-92.32Z"/>
  <rect class="cls-7" x="533.25" y="456.83" width="4.93" height="53.84"/>
  <rect class="cls-7" x="533.25" y="308.41" width="4.93" height="72.95"/>
  <rect class="cls-3" x="524.26" y="369.94" width="22.92" height="121.73" rx="2.95" ry="2.95"/>
  <rect class="cls-7" x="457.36" y="417.28" width="5.64" height="57.3"/>
  <rect class="cls-7" x="457.71" y="325.21" width="4.93" height="72.95"/>
  <rect class="cls-2" x="448.71" y="345.06" width="22.92" height="110.11" rx="3.03" ry="3.03"/>
  <rect class="cls-7" x="370.17" y="340.03" width="5.64" height="108.37"/>
  <rect class="cls-2" x="361.53" y="351.62" width="22.92" height="87.13" rx="3.06" ry="3.06"/>
  <rect class="cls-7" x="613.83" y="473.52" width="4.93" height="53.84"/>
  <rect class="cls-7" x="613.83" y="325.1" width="4.93" height="72.95"/>
  <rect class="cls-2" x="604.83" y="369.85" width="22.92" height="133.93" rx="3.07" ry="3.07"/>
  <rect class="cls-7" x="697.31" y="421.57" width="4.93" height="153.88"/>
  <rect class="cls-3" x="688.31" y="437.49" width="22.92" height="93.46" rx="2.84" ry="2.84"/>
  <rect class="cls-7" x="573.83" y="581.38" width="4.93" height="109.8"/>
  <rect class="cls-2" x="564.84" y="604.5" width="22.92" height="77.32" rx="2.87" ry="2.87"/>
  <rect class="cls-7" x="493.15" y="515.3" width="4.93" height="168.37"/>
  <rect class="cls-3" x="484.16" y="549.55" width="22.92" height="101.84" rx="3.11" ry="3.11"/>
  <rect class="cls-7" x="411.37" y="485.78" width="5.11" height="171.44"/>
  <rect class="cls-3" x="402.37" y="515.3" width="22.92" height="105.8" rx="2.87" ry="2.87"/>
  <rect class="cls-7" x="332.36" y="461.07" width="4.93" height="176.96"/>
  <rect class="cls-2" x="323.36" y="489.31" width="22.92" height="88.26" rx="2.9" ry="2.9"/>
  <path class="cls-2" d="m586.93,368.36c0-5.04,4.09-9.13,9.13-9.13h5.18v-24.16c-15.66-6.11-31.44-10.12-48.03-12.7.02,13.84-.04,27.67-.14,41.51,5.6.36,10.03,5,10.03,10.68v72.53c4.51.89,9.03,1.64,13.62,2,3.46-.01,6.83-.14,10.21-.52v-80.21Z"/>
  <path class="cls-2" d="m755.39,508.07c-2.2-20.3-10.55-39.37-19.67-57.38-2.42-4.78-9.69-19.14-12.95-23.4-.06,1.2-.1,2.41-.13,3.61,1.01,1.09,1.63,2.55,1.63,4.16v103.09c0,3.39-2.75,6.14-6.14,6.14h-4.51c-.07,16-.29,37.53.01,52.5,16.58-14.39,31.77-34.04,38.41-54.66,1.36-4.23,3.16-9.09,3.52-13.49-1.17-2.16.24-16.7-.18-20.57Z"/>
  <path class="cls-2" d="m519.7,321.81c-17.6.48-35.52-.56-53.12-.9.24,4.07.11,8.2.11,12.29h4.03c3.23-.35,6.55-.74,9.55.01,3.87.14,6.96,3.31,6.96,7.21v90.64c0,1.04-.22,2.02-.61,2.91,7.85.55,12.73,1.21,20.31,2.18v-61.57c0-5.92,4.8-10.72,10.72-10.72h2.06c-.1-11.35-.09-22.7-.05-34.04"/>
  <g>
    <path class="cls-2" d="m350.43,423.05c.08.08.15.17.23.26-.01-.07-.03-.13-.04-.2-.06-.02-.13-.03-.19-.06Z"/>
    <path class="cls-2" d="m453.46,322.97c-11.96.6-23.67-.68-35.45-2.56-28.69-4.57-55.95-13.44-77.91-33.35-13.52-12.26-22.64-27.43-29.75-44.06-8.31,17.29-14.3,33.78-15.21,53.13-.4,8.54-.52,17.13.18,25.66.41,5.03,1.41,10.05,1.72,15.07.08,1.24.04,2.04-.56,3.16,1.14,4.54,3.29,9.19,5.14,13.5,10.19,23.71,28.39,46.53,45.75,66.1-.11-.43-.2-.86-.2-1.33v-71.41c0-2.82,2.29-5.11,5.11-5.11h13.48c-.03-.97-.05-2.25-.09-2.79.95-2.8.9-3.85,3.26-5.59,1.1-1.18,3.68-.89,5.32-.81,1.42.07,2.52.88,3.49,1.88,2.3,2.38,2.39,4.36,2.35,7.31h11.39c2.82,0,5.11,2.29,5.11,5.11v71.41c0,2.22-1.42,4.09-3.4,4.79,0,.01-.02.02-.02.04,11.94.98,27.67,2.18,39.87,3.9v-84.67c0-3.99,3.23-7.22,7.22-7.22h13.43c0-4.06-.05-8.11-.25-12.17Z"/>
  </g>
  <path class="cls-2" d="m675.35,625.41c-2.32-3.43-4.79-6.75-7.42-9.94-2.63-3.2-5.41-6.26-8.33-9.19-30.17-30.37-70.9-50.79-112.14-61.23-9.07-2.3-18.46-4.32-27.86-5.11,1.76,1.9,2.84,4.43,2.84,7.22v74.47c.11,7.18.25,15.42,0,22.57v9.36c0,5.5-4.17,10.02-9.52,10.58,12.54.53,25.09-.88,37.56-2.17v-21.65l-.04-18.04c0-6.25-.3-12.72.04-19v-7.61c0-3.45,2.79-6.24,6.24-6.24h10.66v-8.89c0-4.91,3.98-8.89,8.89-8.89h.68c4.91,0,8.89,3.98,8.89,8.89v8.89h10.97c3.45,0,6.24,2.79,6.24,6.24v17.66c.06,6.97.05,15.16,0,23.3v38.12c17.21-12.84,39.91-23.94,61.85-20.91,13.24,1.83,22.22,9.32,30.46,19.34-1.4-13.89-12.23-36.13-20.02-47.76Z"/>
  <path class="cls-2" d="m479.81,522.6c-16.42-5.89-32.38-13.99-49.13-18.79,0,.49-.07,1.16-.13,1.89h.59c5.67,0,10.26,4.59,10.26,10.26v104.48c0,5.67-4.59,10.26-10.26,10.26h-.6l.02,24.6c12.35,3.15,30.13,7.92,44.47,8.73-5.02-.85-8.85-5.21-8.85-10.48v-106.41c0-5.88,4.76-10.64,10.64-10.64h2.97c.05-4.64.1-9.28,0-13.9Z"/>
  <path class="cls-2" d="m394.71,506.36h4.42c.1-5.45.19-10.89.02-16.34-17.73-13.71-36.05-27.23-52.34-42.68-10.51-9.97-19.48-20.72-29.08-31.48-.77.85-1.53,1.71-2.29,2.58-.75.87-1.49,1.75-2.22,2.63-.73.89-1.45,1.78-2.16,2.69-.71.9-1.4,1.82-2.09,2.74-.68.92-1.36,1.85-2.02,2.79-.66.94-1.31,1.88-1.95,2.84-.64.95-1.27,1.92-1.88,2.89-.62.97-1.22,1.95-1.81,2.93-.59.98-1.17,1.98-1.74,2.97-.57,1-1.12,2.01-1.66,3.02-.54,1.01-1.07,2.03-1.59,3.06s-1.02,2.06-1.51,3.1c-.49,1.04-.97,2.08-1.43,3.13-.47,1.05-.92,2.1-1.36,3.17-.44,1.06-.87,2.13-1.28,3.2-.41,1.07-.81,2.15-1.2,3.23-.39,1.08-.76,2.17-1.12,3.26s-.71,2.19-1.04,3.28c-.33,1.1-.65,2.2-.96,3.31-.31,1.11-.6,2.22-.88,3.33-.28,1.11-.54,2.23-.79,3.35-.25,1.12-.49,2.24-.71,3.37-.22,1.13-.43,2.26-.63,3.39-.19,1.13-.38,2.26-.54,3.4-.17,1.14-.32,2.27-.46,3.41-.14,1.14-.26,2.28-.38,3.42-.11,1.14-.21,2.29-.29,3.43-.08,1.15-.15,2.29-.21,3.44-.05,1.15-.09,2.29-.12,3.44-.03,1.15-.04,2.3-.04,3.45,0,1.15.02,2.3.05,3.44.03,1.15.08,2.3.13,3.44.37,8.16,1.34,16.37,3.38,24.28.79,3.06,7.45,21.02,7.46,21.85,0,.45-.24.88-.36,1.31,4.26,8.71,20.05,25.61,27.24,32.96l-.05-11.14h-7.43c-2.7,0-4.89-2.19-4.89-4.89v-95.98c0-2.7,2.19-4.89,4.89-4.89h5.83v-9.97c-.01-.82-.01-1.63,0-2.44v-4.26c0-8.58,6.96-15.54,15.54-15.54h3.41c8.58,0,15.54,6.96,15.54,15.54v6.71c.12,3.56.15,7.17.17,9.96h5.78c2.7,0,4.89,2.19,4.89,4.89v95.98c0,2.7-2.19,4.89-4.89,4.89h-7.25l-.09,36.09c14.83,10.65,31.58,17.84,48.36,24.8l-.14-15.78h-4.24c-5.67,0-10.26-4.59-10.26-10.26v-104.48c0-5.67,4.59-10.26,10.26-10.26Z"/>
  <path class="cls-2" d="m714.74,415.09c-22.25-29.63-49.81-47.47-81.57-65.33v11.56s2.54,0,2.54,0c5.04,0,9.13,4.09,9.13,9.13v5.81c.61,7.62.18,15.56.21,23.2.03,9.29-.1,18.59-.21,27.9v34.93c.02.86.03,1.73.05,2.6,9.25,3.16,18.95,4.84,28.12,8.27v-38.1c0-3.39,2.75-6.14,6.14-6.14h1.68v-3.65c0-7.63,6.18-13.81,13.81-13.81h9.38c7.63,0,13.81,6.18,13.81,13.81v3.65h.45c2.18,0,4.08,1.13,5.17,2.84.85.14,1.69.33,2.51.62-2.59-6.05-7.29-12.03-11.24-17.28Z"/>
  <text/>
  <path class="cls-4" d="m299.08,232.52c4.47-7.7,6.55-16.96,12.08-24.09-.42,22.35,6.58,43.12,22.22,59.45,36.61,38.21,90.72,41.23,140.42,42.09,15.21.22,30.42.12,45.62-.28-.39,4.47.43,9,.44,13.49-17.6.48-35.74.16-53.34-.18-.86-1.39-1.65-2.75-3.08-3.63-1.6-.99-3.64-1.39-5.45-.8-2.23.73-3.5,2.42-4.55,4.4-11.96.6-23.67-.68-35.45-2.56-28.69-4.57-55.95-13.44-77.91-33.35-13.52-12.26-22.64-27.43-29.75-44.06-8.31,17.29-14.3,33.78-15.21,53.13-.4,8.54-.52,17.13.18,25.66.41,5.03,1.41,10.05,1.72,15.07.08,1.24.04,2.04-.56,3.16-9.44-26.54-10.63-58.65-4.16-86.02,1.73-7.31,4.69-14.28,6.76-21.49Z"/>
</svg>